<?xml version="1.0" encoding="UTF-8" standalone="no"?>
<!-- Created with Inkscape (http://www.inkscape.org/) -->

<svg
   xmlns:dc="http://purl.org/dc/elements/1.1/"
   xmlns:cc="http://creativecommons.org/ns#"
   xmlns:rdf="http://www.w3.org/1999/02/22-rdf-syntax-ns#"
   xmlns:svg="http://www.w3.org/2000/svg"
   xmlns="http://www.w3.org/2000/svg"
   version="1.1"
   width="410.05875"
   height="183.7075"
   id="svg3277">
  <defs
     id="defs3279">
    <clipPath
       id="clipPath3023">
      <path
         d="m 141.84,411.034 328.047,0 0,146.966 -328.047,0 0,-146.966 z"
         id="path3025" />
    </clipPath>
  </defs>
  <metadata
     id="metadata3282">
    <rdf:RDF>
      <cc:Work
         rdf:about="">
        <dc:format>image/svg+xml</dc:format>
        <dc:type
           rdf:resource="http://purl.org/dc/dcmitype/StillImage" />
        <dc:title></dc:title>
      </cc:Work>
    </rdf:RDF>
  </metadata>
  <g
     transform="translate(-129.25633,-94.79419)"
     id="layer1">
    <g
       transform="matrix(1.25,0,0,-1.25,-48.043666,792.29419)"
       id="g3019">
      <g
         clip-path="url(#clipPath3023)"
         id="g3021">
        <text
           transform="matrix(1,0,0,-1,381.4157,211.3601)"
           id="text3027">
          <tspan
             x="0 3.8303924 7.0026212 10.833014 14.064537 18.77841"
             y="0"
             id="tspan3029"
             style="font-size:5.92939997px;font-variant:normal;font-weight:normal;font-stretch:normal;writing-mode:lr-tb;fill:#918f90;fill-opacity:1;fill-rule:nonzero;stroke:none;font-family:'MBTFFM+TrebuchetMS';-inkscape-font-specification:TrebuchetMS">title:</tspan>
          <tspan
             x="-5.3068128 -0.88941002 2.342113 5.5143418 10.228215 14.948017 18.77841"
             y="10.37645"
             id="tspan3031"
             style="font-size:5.92939997px;font-variant:normal;font-weight:normal;font-stretch:normal;writing-mode:lr-tb;fill:#918f90;fill-opacity:1;fill-rule:nonzero;stroke:none;font-family:'MBTFFM+TrebuchetMS';-inkscape-font-specification:TrebuchetMS">client:</tspan>
          <tspan
             x="0.85383362 5.6388593 10.234144 14.064537 18.77841"
             y="20.752899"
             id="tspan3033"
             style="font-size:5.92939997px;font-variant:normal;font-weight:normal;font-stretch:normal;writing-mode:lr-tb;fill:#918f90;fill-opacity:1;fill-rule:nonzero;stroke:none;font-family:'MBTFFM+TrebuchetMS';-inkscape-font-specification:TrebuchetMS">date:</tspan>
          <tspan
             x="-22.211533 -17.426506 -12.712633 -8.8288765 -5.6566477 -1.1977388 3.5220635 8.2359362 12.024823 14.200913 16.60232 18.77841"
             y="31.129351"
             id="tspan3035"
             style="font-size:5.92939997px;font-variant:normal;font-weight:normal;font-stretch:normal;writing-mode:lr-tb;fill:#918f90;fill-opacity:1;fill-rule:nonzero;stroke:none;font-family:'MBTFFM+TrebuchetMS';-inkscape-font-specification:TrebuchetMS">designer(s):</tspan>
        </text>
        <text
           transform="matrix(1,0,0,-1,217.68718,211.3601)"
           id="text3037">
          <tspan
             x="0 4.5182028 9.5759811 14.882794 18.813986 23.456707 27.37604 31.295374 33.969532 38.487736 43.000008 47.263248 51.342674 55.860878 58.398659 62.976158 67.239395 69.913559 73.832886 78.351089 83.260635 87.962646 90.500435 95.558212 98.232368 100.77015 105.6204"
             y="0"
             id="tspan3039"
             style="font-size:5.92939997px;font-variant:normal;font-weight:bold;font-stretch:normal;writing-mode:lr-tb;fill:#918f90;fill-opacity:1;fill-rule:nonzero;stroke:none;font-family:'MBTFFM+TrebuchetMS-Bold';-inkscape-font-specification:TrebuchetMS-Bold">COMPASS CREATIVE STUDIO INC</tspan>
        </text>
        <text
           transform="matrix(1,0,0,-1,244.68374,200.98365)"
           id="text3041">
          <tspan
             x="0 3.6999457 7.3998914 11.099836 13.868867 17.568811 21.268757 24.968704 28.66865 31.046339 34.040684 37.817715 41.648106 44.589088 48.419479 50.797169 53.791515 57.615978 60.515457 64.013802 66.296623 69.824615 73.649078 76.026764 78.926247"
             y="0"
             id="tspan3043"
             style="font-size:5.92939997px;font-variant:normal;font-weight:normal;font-stretch:normal;writing-mode:lr-tb;fill:#918f90;fill-opacity:1;fill-rule:nonzero;stroke:none;font-family:'MBTFFM+TrebuchetMS';-inkscape-font-specification:TrebuchetMS">201-3228 south service rd</tspan>
          <tspan
             x="8.5798416 12.475457 16.305849 19.205326 21.54744 23.830259 27.66065 31.23015 34.171131 37.948158 41.778553 44.547581 46.92527 50.702301 54.532692 56.910381 60.503597 64.203545 68.579437 70.95713 74.657074 79.127846"
             y="10.37645"
             id="tspan3045"
             style="font-size:5.92939997px;font-variant:normal;font-weight:normal;font-stretch:normal;writing-mode:lr-tb;fill:#918f90;fill-opacity:1;fill-rule:nonzero;stroke:none;font-family:'MBTFFM+TrebuchetMS';-inkscape-font-specification:TrebuchetMS">burlington, on L7N 3H8</tspan>
          <tspan
             x="2.7690299 7.7734432 12.777857 17.153753 19.922785 23.450777 27.227804 32.742146 36.637764 40.343639 43.337986 46.332333 49.860325 52.7598 56.584263 60.290138 63.231121 65.513939 69.012283 72.836746 75.605782 79.133774"
             y="20.752899"
             id="tspan3047"
             style="font-size:5.92939997px;font-variant:normal;font-weight:normal;font-stretch:normal;writing-mode:lr-tb;fill:#918f90;fill-opacity:1;fill-rule:nonzero;stroke:none;font-family:'MBTFFM+TrebuchetMS';-inkscape-font-specification:TrebuchetMS">www.compasscreative.ca</tspan>
        </text>
        <text
           transform="matrix(1,0,0,-1,410.69508,211.3601)"
           id="text3049">
          <tspan
             x="0 5.0103431 9.3565931 13.406373 15.784062 19.65596 24.417269 28.988836 33.750145 36.127834 40.195404 44.26297 48.33054 52.398109 54.775799 57.544827 59.922516 64.144249 69.154594 73.382256"
             y="0"
             id="tspan3051"
             style="font-size:5.92939997px;font-variant:normal;font-weight:bold;font-stretch:normal;writing-mode:lr-tb;fill:#231f20;fill-opacity:1;fill-rule:nonzero;stroke:none;font-family:'MBTFFM+TrebuchetMS-Bold';-inkscape-font-specification:TrebuchetMS-Bold">MAF LOGO 2012 - CMYK</tspan>
        </text>
        <text
           transform="matrix(1,0,0,-1,410.69508,200.98365)"
           id="text3053">
          <tspan
             x="0 4.7968845 7.0797038 10.074051 13.068398 15.351216 19.128244 22.958637 25.01021 28.775377 32.273724 34.556541 38.262417 41.209332 43.492149 47.269176 51.099567 53.477257 57.183132 61.007595 63.349709 65.691826 69.468849 74.473267 77.467613 81.298004 83.580826"
             y="0"
             id="tspan3055"
             style="font-size:5.92939997px;font-variant:normal;font-weight:normal;font-stretch:normal;writing-mode:lr-tb;fill:#231f20;fill-opacity:1;fill-rule:nonzero;stroke:none;font-family:'MBTFFM+TrebuchetMS';-inkscape-font-specification:TrebuchetMS">Mission Aviation Fellowship</tspan>
          <tspan
             x="0 3.4153345 7.2457266 11.076119 14.900582 17.278271 20.978218 24.678164 28.378109"
             y="10.37645"
             id="tspan3057"
             style="font-size:5.92939997px;font-variant:normal;font-weight:normal;font-stretch:normal;writing-mode:lr-tb;fill:#231f20;fill-opacity:1;fill-rule:nonzero;stroke:none;font-family:'MBTFFM+TrebuchetMS';-inkscape-font-specification:TrebuchetMS">June 2012</tspan>
          <tspan
             x="0 3.4153345 7.1212096 10.115557 13.892584 17.722977 20.100666 24.049646 27.826674 31.657066 36.66148 42.175823 45.881699"
             y="20.752899"
             id="tspan3059"
             style="font-size:5.92939997px;font-variant:normal;font-weight:normal;font-stretch:normal;writing-mode:lr-tb;fill:#231f20;fill-opacity:1;fill-rule:nonzero;stroke:none;font-family:'MBTFFM+TrebuchetMS';-inkscape-font-specification:TrebuchetMS">Jason Bouwman</tspan>
        </text>
        <text
           transform="matrix(1,0,0,-1,114.8119,682.1733)"
           id="text3061">
          <tspan
             x="0 5.1585779 6.9996567 8.8852062 13.447879 18.010553 22.573225 26.344324 33.495182 35.336258 37.221809 41.784481 46.347157 49.709126 54.227329 56.068405 57.953957 62.516628 66.287727 71.304001 73.145081 75.030624 79.5933"
             y="0"
             id="tspan3063"
             style="font-size:8.89410019px;font-variant:normal;font-weight:normal;font-stretch:normal;writing-mode:lr-tb;fill:#231f20;fill-opacity:1;fill-rule:nonzero;stroke:none;font-family:Myriad Pro;-inkscape-font-specification:MyriadPro-Regular">C: 100 M: 57 Y: 0 K: 40</tspan>
          <tspan
             x="0 5.1585779 6.9996567 8.8852062 13.447879 17.218977 24.369835 26.210913 28.096462 32.659134 37.221809 41.784481 45.14645 49.664654 51.505733 53.391281 57.953957 62.516628 66.287727 71.304001 73.145081 75.030624 79.5933"
             y="17.7882"
             id="tspan3065"
             style="font-size:8.89410019px;font-variant:normal;font-weight:normal;font-stretch:normal;writing-mode:lr-tb;fill:#231f20;fill-opacity:1;fill-rule:nonzero;stroke:none;font-family:Myriad Pro;-inkscape-font-specification:MyriadPro-Regular">C: 5 M: 100 Y: 71 K: 22</tspan>
          <tspan
             x="0 5.1585779 6.9996567 8.8852062 13.447879 17.218977 24.369835 26.210913 28.096462 32.659134 36.021107 40.539307 42.380386 44.265934 48.828609 52.599709 57.615978 59.457058 61.342609 65.905281"
             y="35.576401"
             id="tspan3067"
             style="font-size:8.89410019px;font-variant:normal;font-weight:normal;font-stretch:normal;writing-mode:lr-tb;fill:#231f20;fill-opacity:1;fill-rule:nonzero;stroke:none;font-family:Myriad Pro;-inkscape-font-specification:MyriadPro-Regular">C: 0 M: 1 Y: 0 K: 51</tspan>
        </text>
        <g
           transform="translate(146.922,237.3396)"
           id="g3069">
          <path
             d="m 0,0 -0.498,-0.715 c -0.102,0.107 -0.284,0.206 -0.543,0.3 -0.261,0.093 -0.514,0.143 -0.765,0.143 -0.548,0 -0.982,-0.191 -1.303,-0.571 -0.323,-0.382 -0.483,-0.903 -0.483,-1.565 0,-0.657 0.163,-1.162 0.488,-1.508 0.325,-0.343 0.777,-0.515 1.356,-0.515 0.446,0 0.899,0.175 1.356,0.524 L 0,-4.748 c -0.535,-0.349 -1.2,-0.523 -1.989,-0.523 -0.769,0 -1.402,0.255 -1.903,0.771 -0.499,0.516 -0.749,1.212 -0.749,2.092 0,0.898 0.261,1.617 0.785,2.16 0.522,0.544 1.239,0.816 2.148,0.816 0.292,0 0.611,-0.063 0.952,-0.189 C -0.415,0.257 -0.162,0.13 0,0"
             id="path3071"
             style="fill:#231f20;fill-opacity:1;fill-rule:nonzero;stroke:none" />
        </g>
        <g
           transform="translate(151.592,236.8395)"
           id="g3073">
          <path
             d="m 0,0 c -0.216,0.151 -0.436,0.228 -0.654,0.228 -0.355,0 -0.665,-0.163 -0.928,-0.49 -0.265,-0.328 -0.397,-0.722 -0.397,-1.18 l 0,-3.223 -1.008,0 0,5.629 1.008,0 0,-0.905 c 0.365,0.672 0.905,1.009 1.624,1.009 0.176,0 0.436,-0.031 0.771,-0.095 L 0,0 z"
             id="path3075"
             style="fill:#231f20;fill-opacity:1;fill-rule:nonzero;stroke:none" />
        </g>
        <g
           transform="translate(155.5483,237.0674)"
           id="g3077">
          <path
             d="m 0,0 c -0.45,0 -0.822,-0.145 -1.127,-0.433 -0.287,-0.272 -0.452,-0.61 -0.489,-1.017 l 3.129,0 c 0,0.403 -0.126,0.738 -0.38,1.007 C 0.854,-0.147 0.477,0 0,0 m 2.422,-2.186 -4.061,0 c 0,-0.657 0.182,-1.161 0.542,-1.514 0.317,-0.307 0.726,-0.459 1.227,-0.459 0.569,0 1.044,0.167 1.425,0.504 L 1.974,-4.371 C 1.82,-4.526 1.585,-4.661 1.267,-4.775 c -0.4,-0.152 -0.843,-0.224 -1.332,-0.224 -0.706,0 -1.306,0.239 -1.798,0.72 -0.55,0.527 -0.824,1.24 -0.824,2.133 0,0.927 0.28,1.672 0.846,2.234 0.503,0.501 1.102,0.752 1.791,0.752 0.804,0 1.431,-0.226 1.887,-0.68 0.442,-0.435 0.664,-1.014 0.664,-1.736 0,-0.222 -0.027,-0.424 -0.079,-0.61"
             id="path3079"
             style="fill:#231f20;fill-opacity:1;fill-rule:nonzero;stroke:none" />
        </g>
        <g
           transform="translate(165.5152,237.003)"
           id="g3081">
          <path
             d="m 0,0 -0.653,0 0,0.8 0.653,0 0,1.17 1.007,0.385 0,-1.555 1.555,0 0,-0.8 -1.555,0 0,-2.791 c 0,-0.471 0.08,-0.807 0.24,-1.006 0.158,-0.201 0.418,-0.298 0.771,-0.298 0.255,0 0.523,0.061 0.795,0.187 L 2.96,-4.781 C 2.547,-4.882 2.09,-4.935 1.592,-4.935 1.147,-4.935 0.769,-4.771 0.46,-4.44 0.153,-4.111 0,-3.691 0,-3.187 L 0,0 z"
             id="path3083"
             style="fill:#231f20;fill-opacity:1;fill-rule:nonzero;stroke:none" />
        </g>
        <g
           transform="translate(170.4218,232.1746)"
           id="g3085">
          <path
             d="m 0,0 0,4.788 -0.777,0 0,0.84 1.784,0 L 1.007,0 0,0 z"
             id="path3087"
             style="fill:#231f20;fill-opacity:1;fill-rule:nonzero;stroke:none" />
        </g>
        <g
           transform="translate(175.6021,232.0681)"
           id="g3089">
          <path
             d="m 0,0 -0.273,0 -2.415,5.754 1.092,0 1.5,-3.947 1.524,3.947 1.05,0 L 0,0 z"
             id="path3091"
             style="fill:#231f20;fill-opacity:1;fill-rule:nonzero;stroke:none" />
        </g>
        <g
           transform="translate(181.6769,237.0674)"
           id="g3093">
          <path
             d="m 0,0 c -0.448,0 -0.821,-0.145 -1.124,-0.433 -0.289,-0.272 -0.454,-0.61 -0.492,-1.017 l 3.129,0 c 0,0.403 -0.124,0.738 -0.379,1.007 C 0.858,-0.147 0.48,0 0,0 m 2.422,-2.186 -4.059,0 c 0,-0.657 0.178,-1.161 0.541,-1.514 0.318,-0.307 0.726,-0.459 1.226,-0.459 0.57,0 1.046,0.167 1.424,0.504 L 1.977,-4.371 C 1.823,-4.526 1.586,-4.661 1.27,-4.775 0.869,-4.927 0.425,-4.999 -0.065,-4.999 c -0.706,0 -1.306,0.239 -1.801,0.72 -0.547,0.527 -0.821,1.24 -0.821,2.133 0,0.927 0.284,1.672 0.847,2.234 0.503,0.501 1.103,0.752 1.791,0.752 0.803,0 1.434,-0.226 1.886,-0.68 0.444,-0.435 0.664,-1.014 0.664,-1.736 0,-0.222 -0.025,-0.424 -0.079,-0.61"
             id="path3095"
             style="fill:#231f20;fill-opacity:1;fill-rule:nonzero;stroke:none" />
        </g>
        <g
           transform="translate(161.3764,237.8579)"
           id="g3097">
          <path
             d="m 0,0 0.272,0 2.416,-5.752 -1.092,0 -1.503,3.949 -1.523,-3.949 -1.051,0 L 0,0 z"
             id="path3099"
             style="fill:#231f20;fill-opacity:1;fill-rule:nonzero;stroke:none" />
        </g>
        <g
           transform="translate(171.0855,239.0949)"
           id="g3101">
          <path
             d="M 0,0 C -0.352,-0.233 -0.755,-0.245 -0.904,-0.024 -1.052,0.197 -0.887,0.568 -0.54,0.803 -0.189,1.035 0.215,1.047 0.363,0.826 0.512,0.606 0.349,0.233 0,0"
             id="path3103"
             style="fill:#231f20;fill-opacity:1;fill-rule:nonzero;stroke:none" />
        </g>
        <g
           transform="translate(126.8046,237.8579)"
           id="g3105">
          <path
             d="m 0,0 0.275,0 2.415,-5.752 -1.092,0 -1.502,3.949 -1.524,-3.949 -1.05,0 L 0,0 z"
             id="path3107"
             style="fill:#b71f2e;fill-opacity:1;fill-rule:nonzero;stroke:none" />
        </g>
        <g
           transform="translate(99.8048,237.323)"
           id="g3109">
          <path
             d="m 0,0 -0.494,-0.7 c -0.103,0.1 -0.284,0.196 -0.542,0.289 -0.26,0.091 -0.513,0.137 -0.763,0.137 -0.547,0 -0.98,-0.189 -1.301,-0.57 -0.32,-0.377 -0.481,-0.9 -0.481,-1.56 0,-0.657 0.165,-1.157 0.487,-1.503 0.326,-0.341 0.777,-0.513 1.352,-0.513 0.446,0 0.897,0.173 1.351,0.518 L 0,-4.741 c -0.534,-0.345 -1.195,-0.518 -1.984,-0.518 -0.765,0 -1.399,0.258 -1.898,0.77 -0.498,0.513 -0.75,1.209 -0.75,2.085 0,0.896 0.262,1.613 0.784,2.155 0.522,0.542 1.238,0.813 2.146,0.813 0.291,0 0.609,-0.062 0.949,-0.185 C -0.412,0.256 -0.16,0.13 0,0"
             id="path3111"
             style="fill:#b71f2e;fill-opacity:1;fill-rule:nonzero;stroke:none" />
        </g>
        <g
           transform="translate(102.3943,234.9873)"
           id="g3113">
          <path
             d="m 0,0 c 0,-1.41 0.497,-2.115 1.491,-2.115 0.461,0 0.825,0.188 1.088,0.565 0.263,0.38 0.395,0.896 0.395,1.55 0,1.393 -0.495,2.092 -1.483,2.092 C 1.038,2.092 0.677,1.906 0.406,1.533 0.137,1.164 0,0.653 0,0 m -1.05,0 c 0,0.868 0.232,1.568 0.7,2.1 C 0.116,2.633 0.729,2.899 1.491,2.899 2.294,2.899 2.916,2.644 3.36,2.13 3.802,1.62 4.025,0.909 4.025,0 c 0,-0.905 -0.226,-1.618 -0.68,-2.14 -0.454,-0.522 -1.074,-0.782 -1.854,-0.782 -0.798,0 -1.424,0.262 -1.87,0.79 C -0.828,-1.603 -1.05,-0.895 -1.05,0"
             id="path3115"
             style="fill:#b71f2e;fill-opacity:1;fill-rule:nonzero;stroke:none" />
        </g>
        <g
           transform="translate(114.8173,232.1717)"
           id="g3117">
          <path
             d="M 0,0 0,3.55 C 0,4.435 -0.382,4.877 -1.147,4.877 -1.39,4.877 -1.616,4.801 -1.824,4.653 -2.034,4.505 -2.178,4.337 -2.255,4.148 l 0,-4.148 -0.99,0 0,3.985 c 0,0.275 -0.104,0.492 -0.313,0.652 -0.206,0.161 -0.483,0.24 -0.826,0.24 -0.199,0 -0.411,-0.078 -0.636,-0.234 C -5.246,4.489 -5.405,4.317 -5.501,4.131 l 0,-4.131 -0.989,0 0,5.608 0.648,0 0.328,-0.655 c 0.384,0.507 0.865,0.762 1.44,0.762 0.802,0 1.364,-0.25 1.686,-0.747 0.11,0.214 0.319,0.39 0.622,0.532 0.303,0.143 0.616,0.215 0.936,0.215 0.58,0 1.029,-0.173 1.344,-0.516 C 0.835,4.853 0.99,4.372 0.99,3.75 L 0.99,0 0,0 z"
             id="path3119"
             style="fill:#b71f2e;fill-opacity:1;fill-rule:nonzero;stroke:none" />
        </g>
        <g
           transform="translate(119.0802,236.5717)"
           id="g3121">
          <path
             d="m 0,0 0,-3.272 c 0.064,-0.094 0.197,-0.182 0.398,-0.27 0.2,-0.085 0.399,-0.126 0.589,-0.126 1.232,0 1.849,0.697 1.849,2.095 0,0.71 -0.145,1.228 -0.439,1.557 C 2.103,0.313 1.636,0.477 0.992,0.477 0.852,0.477 0.684,0.426 0.482,0.329 0.279,0.231 0.119,0.122 0,0 m 0,-4.093 0,-2.502 -0.989,0 0,7.804 0.989,0 0,-0.462 c 0.377,0.379 0.832,0.568 1.367,0.568 0.794,0 1.412,-0.248 1.857,-0.745 0.441,-0.495 0.663,-1.223 0.663,-2.179 0,-0.853 -0.224,-1.549 -0.67,-2.088 -0.445,-0.541 -1.091,-0.81 -1.936,-0.81 -0.237,0 -0.489,0.041 -0.76,0.125 C 0.252,-4.298 0.078,-4.204 0,-4.093"
             id="path3123"
             style="fill:#b71f2e;fill-opacity:1;fill-rule:nonzero;stroke:none" />
        </g>
        <g
           transform="translate(131.0722,232.5046)"
           id="g3125">
          <path
             d="M 0,0 0.349,0.946 C 0.902,0.581 1.347,0.399 1.686,0.399 c 0.613,0 0.921,0.257 0.921,0.775 0,0.37 -0.299,0.688 -0.89,0.953 C 1.259,2.336 0.949,2.495 0.791,2.605 0.633,2.714 0.494,2.836 0.377,2.974 0.26,3.111 0.173,3.259 0.116,3.414 0.059,3.567 0.03,3.736 0.03,3.915 c 0,0.459 0.167,0.821 0.504,1.08 0.335,0.258 0.773,0.387 1.316,0.387 0.41,0 0.926,-0.129 1.546,-0.387 L 3.116,4.072 C 2.72,4.386 2.323,4.544 1.925,4.544 1.686,4.544 1.488,4.487 1.325,4.375 1.162,4.264 1.082,4.123 1.082,3.951 c 0,-0.36 0.203,-0.632 0.61,-0.817 L 2.404,2.808 C 2.84,2.609 3.161,2.382 3.358,2.127 3.558,1.871 3.657,1.554 3.657,1.169 3.657,0.665 3.48,0.271 3.128,-0.013 2.776,-0.298 2.287,-0.44 1.662,-0.44 1.074,-0.44 0.518,-0.293 0,0"
             id="path3127"
             style="fill:#b71f2e;fill-opacity:1;fill-rule:nonzero;stroke:none" />
        </g>
        <g
           transform="translate(136.272,232.5046)"
           id="g3129">
          <path
             d="M 0,0 0.352,0.946 C 0.905,0.581 1.349,0.399 1.689,0.399 c 0.61,0 0.918,0.257 0.918,0.775 0,0.37 -0.298,0.688 -0.89,0.953 C 1.259,2.336 0.953,2.495 0.793,2.605 0.634,2.714 0.497,2.836 0.379,2.974 0.262,3.111 0.175,3.259 0.116,3.414 0.059,3.567 0.032,3.736 0.032,3.915 c 0,0.459 0.167,0.821 0.503,1.08 0.337,0.258 0.777,0.387 1.317,0.387 0.408,0 0.924,-0.129 1.547,-0.387 L 3.117,4.072 C 2.722,4.386 2.325,4.544 1.927,4.544 1.689,4.544 1.49,4.487 1.326,4.375 1.165,4.264 1.083,4.123 1.083,3.951 1.083,3.591 1.287,3.319 1.695,3.134 L 2.406,2.808 C 2.845,2.609 3.162,2.382 3.36,2.127 3.558,1.871 3.659,1.554 3.659,1.169 3.659,0.665 3.482,0.271 3.13,-0.013 2.776,-0.298 2.289,-0.44 1.666,-0.44 1.075,-0.44 0.52,-0.293 0,0"
             id="path3131"
             style="fill:#b71f2e;fill-opacity:1;fill-rule:nonzero;stroke:none" />
        </g>
        <text
           transform="matrix(1,0,0,-1,96.8332,723.5239)"
           id="text3133">
          <tspan
             x="0 5.5859165 12.175129 17.507961 22.895027"
             y="0"
             id="tspan3135"
             style="font-size:9.0387001px;font-variant:normal;font-weight:normal;font-stretch:normal;writing-mode:lr-tb;fill:#231f20;fill-opacity:1;fill-rule:nonzero;stroke:none;font-family:'MBTFFM+TrebuchetMS';-inkscape-font-specification:TrebuchetMS">CMYK</tspan>
          <tspan
             x="0 5.5859165 11.858774 16.613131 22.885988 28.92384 34.365139"
             y="12.744567"
             id="tspan3137"
             style="font-size:9.0387001px;font-variant:normal;font-weight:normal;font-stretch:normal;writing-mode:lr-tb;fill:#231f20;fill-opacity:1;fill-rule:nonzero;stroke:none;font-family:'MBTFFM+TrebuchetMS';-inkscape-font-specification:TrebuchetMS">COLOURS</tspan>
        </text>
        <g
           transform="translate(454.2786,489.8615)"
           id="g3139">
          <path
             d="m 0,0 c 0.026,-0.985 -3.299,-0.424 -8.23,-2.03 -7.693,-2.509 -10.013,-4.48 -10.107,-6.191 -0.243,-4.283 9.83,-12.702 7.199,-24.696 -1.601,-7.304 -17.657,-18.774 -45.524,-23.854 -21.66,-3.947 -41.524,-7.753 -48.804,-16.092 0,0 7.076,12.986 31.451,18.41 29.197,6.497 51.165,16.818 52.305,26.6 1.038,8.886 -3.784,12.921 -3.994,18.078 -0.088,2.176 2.224,5.007 4.857,6.312 C -17.178,-1.642 -8.49,1.201 0,0"
             id="path3141"
             style="fill:#8f8b8d;fill-opacity:1;fill-rule:nonzero;stroke:none" />
        </g>
        <g
           transform="translate(423.9527,502.5165)"
           id="g3143">
          <path
             d="m 0,0 c 0,0 1.086,1.743 0.867,5.172 -0.269,4.159 -4.221,8.982 -15.886,11.106 -15.301,2.788 -34.87,7.962 -45.394,25.316 0,0 10.554,-11.341 32.848,-14.607 C -4.489,23.607 2.232,21.034 5.697,15.946 9.646,10.155 7.61,3.082 6.534,1.284 c 0,0 4.518,0.976 9.679,-1.052 4.117,-1.617 6.381,-5.7 6.597,-8.333 0.091,-1.136 0.236,-1.113 0.236,-1.113 0,0 -0.062,-0.373 -2.464,1.765 -3.085,2.743 -9.352,3.928 -16.989,2.47 -7.463,-1.426 -11.015,-4.069 -17.801,-6.02 -8.82,-2.539 -17.026,-2.962 -17.026,-2.962 0,0 10.399,2.998 18.524,7.998 C -3.867,-0.52 0,0 0,0"
             id="path3145"
             style="fill:#b91134;fill-opacity:1;fill-rule:nonzero;stroke:none" />
        </g>
        <g
           transform="translate(230.2801,466.8988)"
           id="g3147">
          <path
             d="m 0,0 -8.361,-30.137 19.079,0 6.179,23.001 c 3.247,-1.176 6.509,-2.246 9.771,-3.223 l -13.663,-19.778 20.644,0 10.251,15.456 c 8.307,-1.698 16.513,-2.842 24.442,-3.531 l 1.609,-11.925 19.96,0 -1.712,11.08 c 3.347,0.007 6.605,0.089 9.76,0.237 l -3.057,-11.317 19.083,0 c 0,0 5.037,11.284 19.784,18.672 16.142,8.087 21.235,19.691 21.235,19.691 C 75.436,-27.243 0,0 0,0 m 29.114,38.353 -5.894,0 c 0,0 -9.796,0.196 -16.965,-4.538 -7.17,-4.733 -10.07,-8.837 -10.07,-8.837 l -16.912,-19.501 -10.282,32.876 -1.082,0 c 0,0 -7.104,0.185 -13.934,-3.951 -5.694,-3.445 -8.311,-9.616 -8.311,-9.616 l -18.324,-54.923 19.37,0 12.697,34.245 10.085,-38.613 L 0,0 c 0,0 6.566,-1.894 17.833,-3.652 l 11.281,42.005 z m 95.63,-28.274 3.133,11.641 c 0,0 17.763,-1.91 32.131,-0.193 1.212,4.422 4.588,16.826 4.588,16.826 l -33.259,0 c 0,0 -8.16,-0.05 -13.282,-3.494 -6.892,-4.635 -8.202,-9.622 -8.202,-9.622 l -7.482,-27.71 c 6.622,1.231 13.396,2.781 20.277,4.708 l 2.096,7.844 z m -73.286,-13.114 12.817,19.57 2.545,-19.57 0.336,-3.374 c 6.034,0.245 12.337,0.712 18.858,1.472 l -6.768,43.781 -3.161,0 c 0,0 -6.283,0.821 -14.263,-3.494 C 56.6,32.527 52.367,26.842 52.367,26.842 L 30.193,-5.254 c 5.708,-0.594 12.082,-1.057 19.008,-1.255 l 2.257,3.474 z"
             id="path3149"
             style="fill:#104076;fill-opacity:1;fill-rule:nonzero;stroke:none" />
        </g>
      </g>
    </g>
  </g>
</svg>
